<?xml version="1.0" encoding="UTF-8"?>
<svg id="Layer_1" data-name="Layer 1" xmlns="http://www.w3.org/2000/svg" viewBox="0 0 974.42 932.54">
  <defs>
    <style>
      .cls-1 {
        fill: #d31818;
      }

      .cls-2 {
        fill: #fff;
      }
    </style>
  </defs>
  <path class="cls-2" d="M193.41,245.39c1.55,1.08,4.11,2.8,7.4,4.68,0,0,10.1,5.8,21.94,9.37,63.96,19.32,143.58,12.26,143.58,12.26,53.12-5.93,105.07-19.07,157.13-30.87-.67-1.09-2.72-1.34-3.67-1.57-15.34-3.77-28.77-2.36-44.38-.2-27.85,3.86-56.02,10.06-84.12,13.74-14.15,1.85-28.63,3.06-42.88,3.34-.05-.95,1.08-.88,1.75-1.07,14.46-4.17,29.84-7.05,44.51-10.15,27.83-5.88,56.73-12.44,84.36-16.46,23.37-3.4,43.35-3.08,64.19,8.19,3.32,1.8,5.51,5.53,9.93,4.69,2.01-.63,4.08-1.36,6.08-2.02-13.95-12.97-27.83-26.2-41.33-39.55-3.01-.14,2.14-1.66-6.22-.89-73.3,10.89-205.26,32.34-264.69,41.39-16.68,2.54-33.23,3.9-33.23,3.9-8.56.7-15.63,1.04-20.35,1.22h0ZM259.19,245.86c82.72-13.23,163.02-25.92,246.78-39.04-20.17,5.1,23.98-5.37-7.5,2.47s-86.67,21.66-127.98,29.68c-30.77,5.97-69.37,14-101.35,9.57-4.17-.71-6.3-1.86-9.95-2.67h0Z"/>
  <path class="cls-2" d="M536.05,179.43c4,3.79,8.43,6.13,12.58,9.8,12.14,10.73,21.91,24.16,28.96,38.79,3.11,8.12,6.14,16.14,9.29,24.28,4.83-22.67-4.86-43.91-20.19-60.71-2.43-2.66-8.74-9.55-12.47-10.78-6.37-2.1-12,.25-18.18-1.38h0Z"/>
  <path class="cls-2" d="M556.39,108.85c.49-1.55-.28-3.13-.61-3.75-3.48-6.66-27.35-19.39-31.11-21.37-3.3-2.09-6.59-4.17-9.89-6.26-.63,18.52,14.17,37.54,34.16,34.89.98-.13,7.24-2.87,7.44-3.5h.01Z"/>
  <path class="cls-2" d="M642.86,165.54c-20.38-6.37-40.01,2.29-57.81,9.73,1.41,1.28,2.57,2.4,3.77,3.61,7.32,7.37,14.6,14.74,21.91,22.09,15.35-6.24,30.93-11.25,47.08-15.24,6.38-1.58,13.52-3.03,19.91-4.33-3.92-2.29-12.2-6.2-15.66-7.89-4.8-2.34-16.85-7.23-19.21-7.97h.01Z"/>
  <path class="cls-2" d="M711.57,150.33c4.82,3.02,4.57,15.69,8.41,17.7,5.68,2.97,11.74-6.26,17.91-3.99.48-1.74-3.49-4.73-4.24-5.32-6.87-5.39-13.38-8.69-22.07-8.4h0Z"/>
  <path class="cls-2" d="M751.12,143.46c8.38,7.04,13.13,17.08,15.44,27.87.64,3,.51,6.03.99,9.12.09.58.19,1.58,1.11,1.84.03-7.99,1.33-7.91,1.08-17.71-.25-9.79-2.41-25.97-18.61-21.12h-.01Z"/>
  <path class="cls-2" d="M758.59,176.8c-1.39-12.76-7.64-30.97-23.16-30.39,11.75,11.06,19.54,25.37,21.95,41.35.33.12,1.21-.76,1.21-.88,0-3.48.38-6.69,0-10.08h0Z"/>
  <g>
    <path class="cls-1" d="M767.09,208.45c-16.33,6.25-35.65-8.02-39.75-11.18-4.73,1.96-22.71,9.38-27.45,11.34-5.41,2.23-24.11,9.95-29.52,12.19-1.07,4.55-.27,9.57.53,13.95.89,4.92,7.09,12.39,8.73,14.86,3.31,4.96,12.88,9.76,12.35,14.85-.4,3.87-16.74,5.25-19.85,4.96-7.89-1.72-12-.48-20.54-2.98-8.55-2.49-20.31-7.76-29.55-10.96,26.12,42.41,23.55,90.89,1.15,134.71-2.67,5.23-8.04,15.45-12.57,20.23-.66.71-.76,1.36-1.81,1.11.19-2.38.22-4.83,0-7.2-.09-.97-.45-1.51-1.16-1.04-11.3,24.85-25.09,45.74-43.39,66.95-9.28,10.76-23.03,26.47-35.56,34.74-4.82,3.19-8.15,3.27-13.29,2.78,43.36-40.62,83.28-87.16,97.16-146.37.86-.83,1.13.07,1.24.95.44,3.59,1.04,7.73,1.24,11.22.27,4.7-.16,8.99.04,13.48,3.34-4.19,5.96-11.48,7.77-16.3,5.14-13.67,8.13-33.15,8.35-45.52.22-12.38-1.66-11.47-1.79-21.63-7.36-2.43-14.57-5.82-21.87-8.62,2.26,7.02,4.37,13.9,5.01,21.29-24.29-6.4-45.54-22.02-53.9-46.37,5.54,5.43,11.08,10.85,16.63,16.27,4.27,3.39,13.35,11.18,18.45,11.89-2.8-7.41-7.72-15.88-10.16-22.98-2.45-7.09-3.63-12.29-5.82-18.99,11.8,16.62,27.88,28.46,47.34,34.49.11-.91-.14-1.45-.6-2.21-8.33-13.67-18.98-25.25-23.64-40.99-.43-1.44-2.35-5.74-.65-7.17,1.69-1.44,6.26-2.55,8.76-2.01,4.7,1,10.89,6.15,14.61,8.07,11.53,5.93,19.55,9.36,32.75,13.06,1.59.45,21.84,4.7,23.31,1.61,1.39-2.95-18.74-17.04-21.02-26.61-.97-4.04-1.1-12.76,1.02-17.52,9.12-4.48,18.97-8.94,29.54-13.22,13.96-5.65,27.27-10.22,39.68-13.94,8.54,5.58,16.22,8.48,21.52,10.06,10.81,3.23,14.64,1.85,16.35,1.02,3.21-1.56,5.85-4.62,7.87-9.58,6.57-16.15,6.79-49.7-10.12-60.53-8.4-5.39-24.49-.94-33.89.98-8.38,1.71-16.24,3.71-24.44,5.27-15.66-20.9-34.27-40.59-59.64-49.09.41-2.26.74-4.57,1.22-6.8-14.47-3.51-26.9-8.63-37.98-18.71-18.1-16.48-28.16-33.49-52.7-42.92-48.71-18.71-99.3-4.3-132.17,36.75-8.42,10.52-15.84,22.11-20.94,34.37,5.92-4.33,16.47-12.64,21.22-16,4.75-3.35,3.4-1.52,6.88-3.8-19.64,20.31-37.4,41.89-53.77,64.78.66.81,1.43-.08,2.07-.44,9.43-5.41,19.03-11.1,29.69-13.63.75-.18,1.96-.62,2.04.47-6.17,3.26-12.08,7.38-17.69,11.45-19.53,14.15-37.74,29.98-52.32,49.27.92.68,2.28-.32,3.07-.65,8.2-3.44,15.97-7.27,24.32-10.27.91-.33,1.95-.27.75.76-18.94,11.96-36.12,26.32-52.38,41.69-4.7.91-9.34,1.84-14.03,2.76-23.21,4.56-46.28,9.23-69.48,14-15.91,2.56-33.09,6.02-48.85,6.68-3.52.15-4.81.08-6.59,1.82-1.13,1.1,1.59,2.74,1.82,2.95,9.47,9,24.53,21.4,35.01,25.73,18.92,7.82,32.54,10.1,51.38,11.87-3.43,8.92-6.4,18.1-9.9,27.01-4.07,10.31-8.33,20.48-12.9,30.56,29.34-4.06,52.93-24.3,72.06-45.58,4.02-4.48,7.23-9.48,11.15-13.81.73-.81,1.35-1.08.9.36-.67,2.13-3.01,6.11-4.1,8.11-14.23,25.88-37.42,48.46-66.85,55.03-17.93,30.15-37.84,59.34-52.5,91.29,1.9.31,6.18-3.33,7.26-4.12,22.89-16.79,41.82-38.01,58.89-60.24,5.76-7.51,10.67-14.43,15.28-22.62,1.04.12.56,1.18.37,1.89-.78,3.06-33.88,60.57-53.02,73.91-.46.32-3.28,2.26-7.03,5.05-3.37,2.5-6.07,4.63-7.87,6.07-4.48,6.66-10.05,16.95-12.52,30.43-5.92,32.34,10.59,57.89,14.97,64.25-5.15-2.95-16.39-10.35-23.79-24.59-11.17-21.51-5.18-42.43-3.77-46.93-.08-.53-.12-1-.22-1.47-2.2,1.64-5.04,4.13-7.35,5.15-1.54.68-1.03-.76-1-1.51.19-4.82,2.05-11.8,3.2-16.15,8.09-30.59,25.95-56.6,41.66-83.48-.12-.25-.2-.61-.32-.88-3.21,1.97-6.48,5.08-9.92,6.17-.47.15-.93,1.13-.82-.17.11-1.29-1.28,2.63,0-1.01,8.89-25.47,22.45-53.49,33.39-78.96-11.36-.97-20.97-2.17-32.21-5.83-20.74-6.74-33.66-15.48-46.76-34.12-.78-1.11-2.1-4.1-1.74-6.1.74-4.13,9.89-5.95,11.6-6.18,17.72-2.31,34.13-4.88,50.79-7.91,24.03-4.38,47.19-9.53,70.71-15.59,14.67-17.75,29.46-35.53,44.15-53.27,5.51-5.92,9.79-11.7,14.69-18.36,7.41-10.07,15.92-20.47,22.34-31.31,4.48-7.56,6.93-16.89,10.71-24.41,14.69-29.27,36.4-54.86,66-69.33,25.05-12.24,51.92-13.22,78.92-8.95,1.32.59,2.35.68,3.89,1.42,19.31,3.4,39.18,15.26,52.11,28.29,11.44,11.53,12.68,16.96,25.41,27.54,14.48,12.04,37.51,22.49,54.51,33.81,3.75,2.5,9.63,7.09,12.4,10.25,2.31,2.64,3.47,4.15,5.25,6.61,4.19,5.81,7.55,11.82,11.54,17.82.74,1.13,1.49,2.59,2.68,3.68,5.38-1.37,20.5-4.54,24.29-5.76,10.26-3.31,21.16-5.31,28.86-4.21,6.5.93,12.08,5.51,14,7.17,19.06,16.5,15.91,69.84-9.38,79.53h.01Z"/>
    <path class="cls-1" d="M474.73,270.62c0,2.89,5.04,10.22,5.78,12.24,12.05,32.91,2.33,72.29-17.5,99.87-.47.65-2.74,4.19-3.99,3.71,0-7.79-.32-15.75-1.31-23.44-.11-.85-.15-2.16-1.34-.68-.26.32-1.04,3.94-1.6,5.11-17.29,36.39-40.22,69.34-73.05,94.41-5.72,4.37-18.63,14.59-26.92,16.05-.5.09-1.15.36-1.1-.21,19.34-21.15,36.77-43.9,47.97-70.6,1.38-3.28,3.44-8.11,4.4-11.8.19-.73.9-2.4-.34-2.53-1.77,4.15-4.15,8.07-6.63,11.86-19.68,30.04-41.52,59.27-67.94,83.68-8.13,7.51-16.51,13.56-25.14,20.45,4.53-1.74,7.38-.41,12.41-1.51,5.57-1.22,12.03-6.63,16.75-10.48,2.76-2.25,6.99-7.41,9.55-8.77,3.89-2.07,8.01-1.75,11.26-2.88,42.48-14.76,74.2-53.02,94.85-91.43.96-.64.6.64.63,1.26.15,3.99.64,7.95-.01,11.9,1.06,1.17,1.17-.35,1.73-.85,31.73-27.88,50.78-84.45,40.18-125.84-.61-2.38-2.71-10.55-5.81-11.8-4.32.65-8.67,1.35-12.84,2.29h0Z"/>
    <path class="cls-1" d="M706.15,180.87c-14.66-12.14,13.57,10.33-7.98-7.47s-71.67-37.9-107.06-37.56c-19.78.19-36.83,3.56-49.17,20.75,1.19-14.31,10.12-24.64,18.62-35.26-20.62,8.2-35.65,33.97-14.8,50.74,6.72-14.84,10.79-25.52,29.22-28.08,27.86-3.87,67.2,5.82,93.17,16.5,14.16,5.83,23.6,12.17,38.01,20.37h-.01Z"/>
    <path class="cls-1" d="M390.04,304.51c-.39.38-.59,2.79-.93,3.6-12.5,29.4-32.53,54.13-59.15,71.86-7.76,4.07-15.5,8.05-23.28,12.17,11.15-.34,21.49-.96,31.99-5.45,27.42-11.72,46.5-39.18,51.28-68.28.72-4.4.8-8.92,1.29-13.06.14-1.16-.41-1.6-1.2-.84h0Z"/>
    <path class="cls-1" d="M625.09,97.49c9.44,4.45,18.8,8.77,28.23,13.18-13.25-2.53-26.25-5.4-39.83-6.3-.85-.06-3.48-.54-4.08.61,14.56,3.71,27.88,6.78,41.75,13.42,26.25,12.57,48.55,37.64,61.41,63.69.22.45.64,3.08,1.5.76.37-1.01-3.19-10.53-3.75-12.01-13.54-35.87-44.86-71.45-85.22-73.34h0Z"/>
    <path class="cls-1" d="M363.16,388.93c12.47-.07,24.18-4.09,34.02-11.91,27.23-21.63,37.81-54.96,37.49-89.21-4.96,14.92-.19,5.01-6.98,24.69s-23.95,49.84-44.83,63.46c-5.87,3.83-13.81,9.62-19.7,12.96h0Z"/>
    <path class="cls-1" d="M525.61,410.66c.74-5.79,3.14-12.09,4.11-18.36.86-5.55.96-11.44,1.38-17.13-3.12,8.33-5.09,15.52-8.47,24.13-3.38,8.61-8,18.43-11.54,27.22,2.12.75,7.18-3.16,8.5-3.98,13.64-8.56,23.68-19.9,32.5-32.95-.59,5.08-.89,10.15-1.8,15.18-.79,4.39-2.31,8.55-2.63,13.05,10.67-18.13,13.46-38.77,12.3-59.68-3.86,8.07-1.98,6.75-7.16,16.97s-16.16,27.63-27.22,35.55h.03Z"/>
    <path class="cls-1" d="M287.95,376.39c8.84-.27,17.18-2.93,24.88-7.24,26.51-14.83,42.15-41.94,48.51-71.2-7.54,11.35-4.7,9.41-14.32,23.47s-27.58,33.7-43.76,44.69c-4.52,3.07-10.84,7.5-15.31,10.29h0Z"/>
    <path class="cls-1" d="M501.58,57.36c9.63,6.56,16.88,10.58,27.29,17.81,8.9,6.18,29.4,24.68,39.67,26.42,6.06,1.03,8.59-1.1,10.61-5.05,4.38-8.57-1.94-14.03-8.22-19.06.34,3.18,2.2,5.55,3.23,8.68.34,1.05,1.47,4.42-.13,5.07-23.93-11.87-46.39-26.66-72.46-33.87h.01Z"/>
    <path class="cls-1" d="M566.21,410.29c7.38-7.03,13.44-15.37,17.58-24.64,8.43-18.87,10.08-39.2,6.22-59.34-1.07,7.07-1.61,15.09-2.77,21.92-1.16,6.84-2.63,13.03-4.48,19.39-4.28,14.77-11.18,28.36-16.55,42.66h0Z"/>
    <path class="cls-1" d="M425.81,362.63c-.03,1.12,1.4.69,2,.51,21.38-6.42,31.32-26.95,31.88-48.25-3.57,7-1.8,5.25-6.62,14.29-4.81,9.04-15.7,24.04-24.99,32.09-.57.49-1.57,1.5-2.28,1.35h0Z"/>
    <path class="cls-1" d="M621.95,84.38c-6.19-4.31-14.02-8.73-19.76-12.9s-9.4-8.13-14.7-12.15c3.16,4.92,7.15,12.43,10.05,16.78s6.22,8.67,10.22,9.83c5.39,1.55,9.27-1.13,14.19-1.55h0Z"/>
    <path class="cls-1" d="M434.34,185.58c1.42,1.31,2.87,4.07,4.95,4.7,3.97-1.02,7.92-2.09,11.89-3.14-11.47-7.48-23.62-13.69-36.04-19.43-.16,1.14.58,1.46,1.29,2.13,5.84,5.49,11.97,10.23,17.91,15.73h0Z"/>
    <path class="cls-1" d="M578.73,108.79c17.48-2.24,21.86-17.31,13.15-31.32-1.23.33-.68,2.64-.66,3.41.05,1.82.77,3.19.58,4.95-1.01,9.35-6.03,16.9-13.08,22.96h0Z"/>
    <path class="cls-1" d="M507.31,133.91c-3.2-2.63-3.72-2.06-7.57-5.48s-10.66-9.75-14.34-15.16c-1.07-1.57-3.24-5.1-4.43-6.95,1.53,14.28,11.3,26.57,26.34,27.59Z"/>
    <path class="cls-1" d="M612.59,226.22c2.09-.48,4.18-1.01,6.57-1.3,1.14.67,21.62,15.04,22.36,12,1.21-4.95-10.3-9.48-7.82-17.2.84-2.61,3.43-2.56,5.61-3.1.39,2.58,4.17,9.33,4.58,10.84,1.08,3.96,14.05,16.78,11.37,19.25-3.25,3-16.2-2.5-21.49-5.27-6.3-3.29-15.68-9.43-21.2-15.22h.02Z"/>
    <path class="cls-1" d="M274.1,513.97c-6.3-2.4-11.64-6.4-16.11-11.43-15.39-17.3-19.89-40.73-17.16-63.39,2.6,10.06,1.04,7.95,4.45,20.48,3.42,12.53,11.45,31.16,20.36,43.11,2.49,3.34,5.93,8.11,8.46,11.23h0Z"/>
    <path class="cls-1" d="M295.07,477.83c-.32,1.07-1.54.22-2.06-.14-18.29-12.8-21.28-35.41-15.14-55.81,1.2,7.77.07,5.55,1.8,15.64,1.73,10.1,7.37,27.75,13.66,38.31.38.64,1.02,1.92,1.74,2h0Z"/>
  </g>
  <g>
    <path class="cls-1" d="M195.84,568.74l-39.06,95.55,36.79.34-16.9,46.64-38.98-.3-89.38,218.63H0l178.94-393.83,65.77.91-11.56,32.54-37.31-.47h0Z"/>
    <path class="cls-1" d="M179.62,932.54c-53.94,0-30.81-105.41,17.37-243.99,36.01-103.58,61.62-152.85,95.31-152.38,34.96.49,31.45,49.91,8.64,153.27-30.49,138.14-65.45,243.1-121.33,243.1h0ZM283.1,568.56c-8.12-.1-24.23,37.9-49.16,120.3-31.2,103.11-45.08,170.56-33.55,170.59,11.52.03,36.42-67.31,63.78-170.34,21.87-82.35,27.04-120.46,18.92-120.56h.01Z"/>
    <path class="cls-1" d="M362.37,929.62l-3.38-216.95-5.49-.04-33.07,216.99h-47.4l77.14-391.48,39.23.54c26.76.37,38.92,29.2,35.26,76.81-2.91,37.8-12.69,69.69-29.05,85.96l15.45,228.18h-48.69ZM379.65,571.07l-4.57-.06-14.5,95.17,5.19.05c12.76.12,21.55-19.6,25.27-50.16,3.44-28.25-.16-44.86-11.39-45h0Z"/>
    <path class="cls-1" d="M427.95,929.63l19.92-390.14,29.64.41-2.19,317.74,52.85.14,3.34,71.86h-103.57.01Z"/>
    <path class="cls-1" d="M600.29,932.54c-52.37,0-70.64-104.01-77.43-241.21-5.09-102.89.75-151.95,33.82-151.49,34.31.48,50.04,49.68,67.78,152.35,23.63,136.77,30.08,240.34-24.18,240.34h.01ZM560.27,572.1c-7.96-.1-8.93,37.7-1.29,119.54,9.53,102.14,22.1,168.79,33.31,168.82s9.42-66.52-3.76-168.57c-10.57-81.78-20.3-119.69-28.26-119.79Z"/>
    <path class="cls-1" d="M776.62,929.66l-86.65-214.44-5.36-.04,51.28,214.47h-46.02l-75.92-387.87,38.5.53c26.27.36,49.27,29.07,64.06,76.43,11.73,37.55,14.48,69.21,4.81,85.34l102.58,225.58h-47.28ZM655.45,574.58l-4.48-.06,22.62,94.6,5.07.05c12.48.12,13.44-19.47,5.28-49.83-7.55-28.09-17.48-44.62-28.5-44.76h0Z"/>
    <path class="cls-1" d="M937.33,929.68l-117.7-198.05c-13.32-22.71-29.74-52.12-41.4-74.84h-.76c9.7,23.81,20.72,52.07,29.25,74.75l74.51,198.14h-40.94l-130.46-386.56,24.85.34,70.52,112.55c12.04,19.89,29.24,47.82,42.24,70.83h.41c-10.85-23.57-23.15-52.51-30.89-70.72l-47.69-112.19,26.38.37,178.77,385.38h-37.1.01Z"/>
  </g>
</svg>