<?xml version="1.0" encoding="UTF-8"?>
<svg id="Layer_1" data-name="Layer 1" xmlns="http://www.w3.org/2000/svg" viewBox="0 0 893.79 763.9">
  <defs>
    <style>
      .cls-1 {
        fill: #d31818;
      }

      .cls-2 {
        fill: #fff;
      }
    </style>
  </defs>
  <g>
    <path class="cls-2" d="M31.6,355.36c2.25,1.56,5.96,4.05,10.72,6.78,0,0,14.63,8.39,31.78,13.58,92.63,27.98,207.94,17.76,207.94,17.76,76.93-8.59,152.17-27.61,227.56-44.7-.97-1.58-3.95-1.94-5.31-2.28-22.21-5.46-41.67-3.42-64.27-.29-40.34,5.59-81.12,14.57-121.83,19.89-20.49,2.68-41.46,4.43-62.1,4.84-.07-1.37,1.57-1.27,2.53-1.55,20.94-6.04,43.21-10.21,64.47-14.7,40.31-8.51,82.15-18.01,122.17-23.83,33.85-4.92,62.78-4.46,92.96,11.86,4.81,2.6,7.98,8.01,14.38,6.79,2.9-.91,5.9-1.96,8.81-2.93-20.2-18.78-40.31-37.95-59.86-57.28-4.36-.2,3.1-2.41-9-1.29-106.15,15.77-297.25,46.84-383.33,59.94-24.15,3.68-48.13,5.64-48.13,5.64-12.4,1.01-22.63,1.5-29.48,1.76h-.01ZM126.86,356.05c119.8-19.17,236.09-37.54,357.38-56.54-29.21,7.39,34.72-7.78-10.87,3.57-45.59,11.35-125.51,31.37-185.34,42.98-44.56,8.64-100.46,20.28-146.77,13.86-6.03-1.03-9.12-2.7-14.41-3.87h.01Z"/>
    <path class="cls-1" d="M862.4,301.87c-23.65,9.05-51.63-11.61-57.57-16.19-6.85,2.84-32.89,13.58-39.75,16.42-7.83,3.23-34.92,14.41-42.75,17.65-1.55,6.59-.39,13.86.77,20.2,1.29,7.13,10.27,17.94,12.64,21.52,4.79,7.18,18.65,14.13,17.89,21.51-.58,5.6-24.24,7.6-28.75,7.18-11.43-2.49-17.38-.7-29.75-4.32-12.38-3.61-29.41-11.24-42.79-15.87,37.83,61.42,34.11,131.63,1.67,195.09-3.87,7.57-11.64,22.37-18.2,29.3-.96,1.03-1.1,1.97-2.62,1.61.28-3.45.32-6.99.01-10.43-.13-1.4-.65-2.19-1.68-1.51-16.36,35.99-36.34,66.24-62.84,96.96-13.44,15.58-33.35,38.33-51.5,50.31-6.98,4.62-11.8,4.74-19.25,4.03,62.79-58.83,120.61-126.23,140.71-211.97,1.25-1.2,1.64.1,1.8,1.38.64,5.2,1.51,11.19,1.8,16.25.39,6.81-.23,13.02.06,19.52,4.84-6.07,8.63-16.63,11.25-23.61,7.44-19.8,11.77-48.01,12.09-65.92.32-17.93-2.4-16.61-2.59-31.32-10.66-3.52-21.1-8.43-31.67-12.48,3.27,10.17,6.33,20.13,7.26,30.83-35.18-9.27-65.95-31.89-78.06-67.15,8.02,7.86,16.05,15.71,24.08,23.56,6.18,4.91,19.33,16.19,26.72,17.22-4.06-10.73-11.18-23-14.71-33.28-3.55-10.27-5.26-17.8-8.43-27.5,17.09,24.07,40.38,41.22,68.56,49.95.16-1.32-.2-2.1-.87-3.2-12.06-19.8-27.49-36.57-34.24-59.36-.62-2.09-3.4-8.31-.94-10.38,2.45-2.09,9.07-3.69,12.69-2.91,6.81,1.45,15.77,8.91,21.16,11.69,16.7,8.59,28.31,13.56,47.43,18.91,2.3.65,31.63,6.81,33.76,2.33,2.01-4.27-27.14-24.68-30.44-38.54-1.4-5.85-1.59-18.48,1.48-25.37,13.2-6.49,27.47-12.95,42.78-19.15,20.22-8.19,39.5-14.81,57.46-20.19,12.37,8.08,23.48,12.27,31.17,14.57,15.65,4.67,21.2,2.68,23.68,1.48,4.65-2.26,8.47-6.69,11.4-13.87,9.51-23.39,9.83-71.98-14.66-87.66-12.16-7.81-35.47-1.36-49.08,1.42-12.14,2.48-23.52,5.37-35.39,7.63-22.68-30.27-49.63-58.78-86.37-71.09.59-3.27,1.07-6.62,1.77-9.85-20.96-5.08-38.96-12.5-55-27.1-26.21-23.87-40.78-48.5-76.32-62.16-70.54-27.1-143.81-6.23-191.41,53.22-12.19,15.24-22.94,32.02-30.33,49.77,8.57-6.27,23.85-18.31,30.73-23.17,6.88-4.85,4.92-2.2,9.96-5.5-28.44,29.41-54.16,60.67-77.87,93.81.96,1.17,2.07-.12,3-.64,13.66-7.83,27.56-16.08,43-19.74,1.09-.26,2.84-.9,2.95.68-8.94,4.72-17.49,10.69-25.62,16.58-28.28,20.49-54.66,43.42-75.77,71.35,1.33.98,3.3-.46,4.45-.94,11.88-4.98,23.13-10.53,35.22-14.87,1.32-.48,2.82-.39,1.09,1.1-27.43,17.32-52.31,38.12-75.86,60.38-6.81,1.32-13.53,2.66-20.32,4-33.61,6.6-67.02,13.37-100.62,20.27-23.04,3.71-47.92,8.72-70.74,9.67-5.1.22-6.97.12-9.54,2.64-1.64,1.59,2.3,3.97,2.64,4.27,13.71,13.03,35.52,30.99,50.7,37.26,27.4,11.32,47.12,14.63,74.41,17.19-4.97,12.92-9.27,26.21-14.34,39.12-5.89,14.93-12.06,29.66-18.68,44.26,42.49-5.88,76.65-35.19,104.36-66.01,5.82-6.49,10.47-13.73,16.15-20,1.06-1.17,1.96-1.56,1.3.52-.97,3.08-4.36,8.85-5.94,11.74-20.61,37.48-54.19,70.18-96.81,79.69-25.97,43.66-54.8,85.94-76.03,132.21,2.75.45,8.95-4.82,10.51-5.97,33.15-24.32,60.56-55.05,85.29-87.24,8.34-10.88,15.45-20.9,22.13-32.76,1.51.17.81,1.71.54,2.74-1.13,4.43-49.07,87.72-76.78,107.04-.67.46-4.75,3.27-10.18,7.31-4.88,3.62-8.79,6.71-11.4,8.79-6.49,9.65-14.55,24.55-18.13,44.07-8.57,46.84,15.34,83.84,21.68,93.05-7.46-4.27-23.74-14.99-34.45-35.61-16.18-31.15-7.5-61.45-5.46-67.96-.12-.77-.17-1.45-.32-2.13-3.19,2.38-7.3,5.98-10.64,7.46-2.23.98-1.49-1.1-1.45-2.19.28-6.98,2.97-17.09,4.63-23.39,11.72-44.3,37.58-81.97,60.33-120.9-.17-.36-.29-.88-.46-1.27-4.65,2.85-9.38,7.36-14.37,8.94-.68.22-1.35,1.64-1.19-.25.16-1.87-1.85,3.81-.01-1.46,12.87-36.89,32.51-77.46,48.36-114.35-16.45-1.4-30.37-3.14-46.65-8.44-30.04-9.76-48.75-22.42-67.72-49.41-1.13-1.61-3.04-5.94-2.52-8.83,1.07-5.98,14.32-8.62,16.8-8.95,25.66-3.35,49.43-7.07,73.55-11.46,34.8-6.34,68.34-13.8,102.4-22.58,21.25-25.71,42.66-51.45,63.94-77.15,7.98-8.57,14.18-16.94,21.27-26.59,10.73-14.58,23.06-29.64,32.35-45.34,6.49-10.95,10.04-24.46,15.51-35.35,21.27-42.39,52.71-79.45,95.58-100.4C457.77-1.44,496.68-2.86,535.78,3.33c1.91.85,3.4.98,5.63,2.06,27.96,4.92,56.74,22.1,75.47,40.97,16.57,16.7,18.36,24.56,36.8,39.88,20.97,17.44,54.32,32.57,78.94,48.96,5.43,3.62,13.95,10.27,17.96,14.84,3.35,3.82,5.03,6.01,7.6,9.57,6.07,8.41,10.93,17.12,16.71,25.81,1.07,1.64,2.16,3.75,3.88,5.33,7.79-1.98,29.69-6.57,35.18-8.34,14.86-4.79,30.64-7.69,41.8-6.1,9.41,1.35,17.49,7.98,20.27,10.38,27.6,23.9,23.04,101.14-13.58,115.18h-.04Z"/>
    <path class="cls-1" d="M439.02,391.9c-.01,4.19,7.3,14.8,8.37,17.72,17.45,47.66,3.37,104.69-25.34,144.64-.67.94-3.97,6.07-5.77,5.37.01-11.28-.47-22.8-1.9-33.94-.16-1.23-.22-3.12-1.94-.99-.38.47-1.51,5.71-2.31,7.41-25.04,52.71-58.25,100.42-105.79,136.73-8.28,6.32-26.99,21.13-38.99,23.24-.73.13-1.66.53-1.59-.3,28.02-30.63,53.25-63.58,69.47-102.24,1.99-4.75,4.99-11.74,6.37-17.09.27-1.05,1.3-3.48-.49-3.66-2.56,6.02-6.01,11.69-9.61,17.17-28.5,43.5-60.13,85.84-98.39,121.18-11.78,10.88-23.91,19.63-36.4,29.61,6.56-2.52,10.68-.59,17.98-2.19,8.07-1.77,17.42-9.6,24.26-15.18,4-3.26,10.12-10.73,13.84-12.7,5.64-3,11.6-2.53,16.31-4.17,61.51-21.37,107.46-76.78,137.37-132.4,1.39-.93.88.93.91,1.82.22,5.78.92,11.51-.02,17.23,1.53,1.7,1.69-.51,2.51-1.23,45.96-40.37,73.54-122.31,58.19-182.24-.88-3.44-3.92-15.28-8.42-17.09-6.26.94-12.55,1.95-18.6,3.31h-.02Z"/>
    <path class="cls-1" d="M774.16,261.92c-21.23-17.58,19.65,14.96-11.56-10.82s-103.79-54.88-155.05-54.39c-28.65.27-53.34,5.16-71.21,30.05,1.73-20.73,14.65-35.68,26.96-51.06-29.86,11.88-51.63,49.2-21.43,73.48,9.73-21.49,15.62-36.95,42.32-40.66,40.35-5.6,97.31,8.43,134.92,23.9,20.51,8.44,34.17,17.62,55.05,29.5Z"/>
    <path class="cls-1" d="M316.37,440.98c-.57.55-.85,4.05-1.35,5.21-18.1,42.58-47.1,78.39-85.66,104.07-11.24,5.89-22.44,11.66-33.71,17.62,16.15-.49,31.12-1.4,46.32-7.89,39.71-16.97,67.34-56.74,74.27-98.89,1.05-6.37,1.17-12.92,1.86-18.91.2-1.69-.59-2.32-1.73-1.21h0Z"/>
    <path class="cls-1" d="M656.76,141.18c13.67,6.44,27.23,12.71,40.88,19.09-19.19-3.66-38.02-7.82-57.68-9.12-1.23-.08-5.04-.79-5.91.89,21.08,5.37,40.38,9.81,60.46,19.43,38.01,18.21,70.31,54.51,88.93,92.24.32.65.93,4.46,2.17,1.09.54-1.46-4.62-15.25-5.43-17.39-19.61-51.94-64.96-103.48-123.41-106.22h-.01Z"/>
    <path class="cls-1" d="M277.44,563.24c18.06-.11,35.01-5.93,49.26-17.25,39.43-31.32,54.76-79.6,54.29-129.19-7.19,21.61-.27,7.26-10.1,35.76-9.83,28.5-34.68,72.18-64.92,91.91-8.51,5.55-20,13.94-28.53,18.77h0Z"/>
    <path class="cls-1" d="M512.7,594.71c1.08-8.39,4.54-17.51,5.96-26.59,1.25-8.04,1.38-16.57,2-24.81-4.52,12.07-7.37,22.48-12.26,34.95-4.9,12.47-11.59,26.69-16.71,39.42,3.08,1.09,10.4-4.57,12.31-5.77,19.76-12.4,34.3-28.82,47.07-47.72-.85,7.36-1.29,14.71-2.6,21.98-1.15,6.36-3.35,12.38-3.8,18.9,15.46-26.26,19.5-56.15,17.82-86.43-5.6,11.68-2.87,9.78-10.37,24.58-7.51,14.8-23.4,40.01-39.41,51.48h-.01Z"/>
    <path class="cls-2" d="M527.82,259.84c5.8,5.49,12.21,8.88,18.22,14.19,17.58,15.55,31.73,34.99,41.94,56.17,4.5,11.76,8.9,23.38,13.46,35.17,7-32.83-7.04-63.59-29.24-87.93-3.52-3.86-12.65-13.83-18.06-15.61-9.22-3.05-17.37.36-26.32-1.99h0Z"/>
    <path class="cls-1" d="M168.51,545.08c12.8-.39,24.88-4.24,36.04-10.48,38.39-21.47,61.04-60.73,70.25-103.12-10.92,16.44-6.81,13.63-20.73,33.99-13.93,20.36-39.94,48.81-63.38,64.72-6.55,4.44-15.7,10.86-22.17,14.9h0Z"/>
    <path class="cls-1" d="M477.89,83.07c13.95,9.5,24.45,15.32,39.52,25.79,12.88,8.95,42.58,35.74,57.46,38.26,8.78,1.49,12.44-1.6,15.36-7.31,6.35-12.41-2.81-20.32-11.9-27.61.49,4.6,3.19,8.04,4.68,12.57.5,1.52,2.13,6.4-.19,7.35-34.66-17.19-67.18-38.61-104.93-49.04h0Z"/>
    <path class="cls-2" d="M557.27,157.63c.72-2.24-.41-4.53-.89-5.44-5.04-9.65-39.61-28.07-45.05-30.95-4.77-3.02-9.54-6.05-14.32-9.07-.91,26.83,20.53,54.37,49.48,50.53,1.42-.19,10.49-4.16,10.78-5.07h0Z"/>
    <path class="cls-1" d="M571.5,594.17c10.69-10.18,19.46-22.26,25.46-35.69,12.22-27.33,14.6-56.77,9.01-85.93-1.55,10.24-2.34,21.85-4.01,31.75-1.68,9.9-3.82,18.87-6.49,28.08-6.2,21.39-16.19,41.07-23.97,61.79h0Z"/>
    <path class="cls-2" d="M682.5,239.73c-29.51-9.22-57.94,3.32-83.72,14.09,2.04,1.85,3.72,3.48,5.46,5.23,10.6,10.67,21.14,21.34,31.73,31.99,22.24-9.03,44.79-16.29,68.19-22.07,9.24-2.28,19.58-4.39,28.84-6.27-5.68-3.31-17.66-8.98-22.67-11.43-6.95-3.39-24.4-10.47-27.82-11.54h-.01Z"/>
    <path class="cls-1" d="M368.17,525.16c-.04,1.62,2.02,1,2.9.74,30.97-9.29,45.35-39.03,46.18-69.87-5.18,10.14-2.61,7.6-9.58,20.69s-22.74,34.81-36.19,46.48c-.82.71-2.28,2.17-3.3,1.96h-.01Z"/>
    <path class="cls-2" d="M782,217.7c6.98,4.37,6.62,22.73,12.17,25.63,8.22,4.3,17-9.06,25.93-5.78.7-2.52-5.05-6.85-6.14-7.7-9.95-7.81-19.38-12.58-31.97-12.16h.01Z"/>
    <path class="cls-1" d="M652.22,122.19c-8.96-6.24-20.3-12.64-28.62-18.68s-13.61-11.78-21.29-17.6c4.57,7.12,10.35,18,14.56,24.3s9,12.56,14.81,14.23c7.81,2.25,13.42-1.64,20.55-2.25h-.01Z"/>
    <path class="cls-2" d="M839.29,207.75c12.14,10.2,19.01,24.73,22.36,40.36.93,4.35.74,8.73,1.43,13.21.13.83.28,2.29,1.6,2.66.04-11.58,1.93-11.46,1.56-25.64-.37-14.18-3.49-37.61-26.95-30.59h0Z"/>
    <path class="cls-2" d="M850.09,256.03c-2.02-18.48-11.06-44.85-33.54-44.01,17.02,16.01,28.3,36.74,31.79,59.88.48.17,1.75-1.1,1.75-1.27,0-5.03.54-9.69,0-14.6Z"/>
    <path class="cls-1" d="M380.52,268.74c2.06,1.9,4.16,5.89,7.17,6.81,5.75-1.48,11.47-3.03,17.21-4.54-16.61-10.83-34.21-19.82-52.19-28.14-.24,1.65.84,2.12,1.87,3.09,8.46,7.95,17.33,14.82,25.94,22.78Z"/>
    <path class="cls-1" d="M589.62,157.54c25.32-3.24,31.66-25.06,19.05-45.35-1.77.47-.98,3.83-.95,4.94.07,2.64,1.11,4.62.84,7.17-1.46,13.54-8.74,24.48-18.94,33.25h0Z"/>
    <path class="cls-1" d="M486.19,193.92c-4.63-3.82-5.39-2.99-10.97-7.94-5.58-4.95-15.44-14.11-20.76-21.96-1.55-2.28-4.7-7.39-6.42-10.07,2.22,20.68,16.36,38.48,38.15,39.96h0Z"/>
  </g>
  <path class="cls-1" d="M638.66,327.6c3.03-.69,6.06-1.46,9.51-1.89,1.66.97,31.31,21.78,32.39,17.38,1.76-7.16-14.92-13.72-11.32-24.91,1.22-3.78,4.97-3.7,8.13-4.49.57,3.73,6.05,13.51,6.64,15.69,1.56,5.73,20.34,24.3,16.47,27.87-4.71,4.35-23.47-3.63-31.12-7.63-9.13-4.77-22.7-13.65-30.7-22.04v.02Z"/>
  <path class="cls-1" d="M148.45,744.32c-9.12-3.47-16.86-9.26-23.34-16.55-22.29-25.05-28.8-58.98-24.85-91.8,3.76,14.57,1.5,11.51,6.45,29.65s16.58,45.13,29.49,62.43c3.61,4.83,8.6,11.74,12.25,16.27h0Z"/>
  <path class="cls-1" d="M178.83,691.99c-.47,1.56-2.23.32-2.98-.2-26.49-18.54-30.82-51.29-21.93-80.83,1.73,11.25.1,8.03,2.61,22.66,2.51,14.62,10.67,40.19,19.78,55.48.56.93,1.48,2.78,2.52,2.89h0Z"/>
</svg>