<?xml version="1.0" encoding="UTF-8"?>
<svg id="Layer_1" data-name="Layer 1" xmlns="http://www.w3.org/2000/svg" viewBox="0 0 3964.62 1312.04">
  <defs>
    <style>
      .cls-1 {
        fill: #d31818;
      }

      .cls-2 {
        fill: #fff;
      }
    </style>
  </defs>
  <g>
    <path class="cls-1" d="M1866.28,359.65l-.25,276.34,111.54.88-.09,112.06-111.55-.68-.36,394.42h-109.5s.89-896.7.89-896.7l238.06,3.29-.09,111.97-128.64-1.56Z"/>
    <path class="cls-1" d="M2165.1,1146.86c-121.93,0-152.34-166.68-152.11-450.93.23-284.13,30.9-450.22,152.75-448.52,126.24,1.75,152.78,167.85,152.61,450.65-.17,282.91-26.93,448.81-153.24,448.81ZM2165.65,359.08c-27.99-.34-43.9,118.22-44.06,337.61-.16,219.46,15.59,338.33,43.59,338.38,27.98.05,45.07-118.6,45.22-337.76.15-219.09-16.78-337.88-44.75-338.22Z"/>
    <path class="cls-1" d="M2577.43,1142.69l-79.21-390.59-15.66-.1-.19,390.68h-107.43s.49-888.19.49-888.19l141.07,1.95c96.1,1.33,147.6,100.39,147.55,247.24-.04,103.92-21.63,184.15-64.83,222.68l88.56,416.34h-110.35ZM2498.4,367.29l-15.65-.19-.13,273.72,15.66.12c38.51.3,57.76-50.91,57.8-135.57.04-84.66-19.17-137.62-57.67-138.08Z"/>
    <path class="cls-1" d="M2726.07,1142.7l.27-883.36,106.2,1.47-.18,771.25,128.47.23-.02,110.42-234.75-.02Z"/>
    <path class="cls-1" d="M3115.95,1146.86c-118.37,0-148.01-164.23-147.97-444.29.04-279.96,29.7-443.6,148-441.96,122.56,1.7,148.44,165.36,148.46,444.02.02,278.77-25.85,442.23-148.49,442.23ZM3115.98,370.64c-27.17-.33-42.55,116.49-42.56,332.66-.01,216.24,15.35,333.36,42.54,333.41,27.16.05,43.68-116.86,43.68-332.81,0-215.88-16.51-332.93-43.66-333.26Z"/>
    <path class="cls-1" d="M3516.3,1142.76l-77.17-384.88-15.2-.09.07,384.97h-104.31s-.1-875.2-.1-875.2l136.97,1.89c93.32,1.29,143.39,98.9,143.44,243.61.03,102.41-20.89,181.47-62.81,219.45l86.27,410.27h-107.16ZM3439.06,378.68l-15.2-.18.05,269.72,15.2.12c37.39.29,56.06-50.17,56.04-133.6-.02-83.42-18.71-135.61-56.09-136.06Z"/>
    <path class="cls-1" d="M3880.54,1142.78l-91.4-348.72c-12.74-50.47-27.82-120.04-37.1-177.32l-2.31-.02c2.34,59.96,3.52,126.73,3.55,177.14l.14,348.91h-92.78s-.3-870.51-.3-870.51l88.09,1.22,86.85,341.24c11.57,50.43,27.75,117.19,37.01,168.93h1.15c-2.33-53.05-2.37-122.4-2.39-168.63l-.17-339.85,93.25,1.29.49,866.33h-84.08Z"/>
  </g>
  <g>
    <g>
      <path class="cls-1" d="M124.32,1312.04c-10.9-15.82-51.98-79.37-37.24-159.82,6.15-33.53,20-59.12,31.13-75.68,4.47-3.59,11.2-8.89,19.56-15.1,9.34-6.95,16.35-11.78,17.49-12.57,47.61-33.17,129.96-176.22,131.9-183.82.46-1.78,1.65-4.41-.94-4.71-11.46,20.37-23.66,37.57-38,56.26-42.44,55.29-89.53,108.06-146.47,149.82-2.68,1.96-13.33,11.03-18.06,10.25,36.46-79.46,85.99-152.06,130.6-227.06,73.18-16.34,130.88-72.52,166.26-136.89,2.73-4.97,8.55-14.86,10.2-20.16,1.12-3.59-.43-2.91-2.24-.91-9.75,10.78-17.72,23.22-27.73,34.35-47.58,52.93-106.24,103.28-179.23,113.39,8.43-23.59,18.92-49.18,32.07-76.03,9.32-19.03,18.91-36.55,28.44-52.57-17.29-2.55-38.59-6.87-62.34-14.45-11.17-3.57-35.18-13.36-69.27-29.67-34.74-16.62-97.68-53.01-92.23-70.3,2.02-6.41,12.25-7.11,59.09-12.61,34.79-4.09,64.03-8.56,86.03-12.25,25.26-4.24,49.92-9.16,99.26-19.02,18.84-3.76,44.22-8.92,82.85-16.34,8.24-1.58,14.94-2.86,19.01-3.63,12.81-11.44,32.62-28.49,58.1-47.74,42.45-32.07,78.96-53.88,76.43-58.7-.47-.89-2.37-1.4-11.01.61-34.24,7.96-53.96,27.45-55.6,25.78-2.69-2.74,41.88-63.72,122.5-120.93,17.67-12.54,33.06-22.05,44-28.49-.2-2.71-3.2-1.61-5.06-1.16-26.51,6.29-50.4,20.45-73.86,33.9-1.58.9-3.5,3.11-5.14,1.11,12.89-19.09,34.15-48.9,63.82-82.98,36.39-41.81,72.53-75.22,69.92-78.15-.36-.41-1.81-.61-17.12,9.45-23.06,15.16-40.72,29.38-52.77,39.8,12.7-30.49,31.15-59.34,52.09-85.49C712.52,37.4,838.34,1.57,959.49,48.11c61.04,23.45,86.07,65.76,131.09,106.74,27.56,25.08,58.48,37.82,94.46,46.54-1.18,5.56-2,11.3-3.03,16.93,63.12,21.12,109.41,70.11,148.35,122.1,20.39-3.88,39.94-8.85,60.8-13.11,23.37-4.78,63.39-15.84,84.29-2.45,42.05,26.95,41.5,110.41,25.17,150.56-11.96,29.4-32.75,31.89-60.24,21.28-11.39-4.39-19.96-14.56-33.56-18.28-6.36-1.74-26.78-4.96-33.59-.21-.47.33-.65.56-.69.78-.11.68.34,1.36.45,1.51.66.91,2.27,4.98,5.4,14.2,8.25-.29,16.51-.59,24.76-.88,45.19,34.39,72.18,26.88,78.75,24.64,57.41-19.6,72.51-155.23,23.34-197.8-4.78-4.14-18.66-15.51-34.83-17.83-19.15-2.75-46.26,2.23-71.78,10.45-9.42,3.04-47.04,10.92-60.42,14.34-2.96-2.73-4.82-6.36-6.68-9.16-9.91-14.91-18.26-29.88-28.7-44.32-4.42-6.12-7.3-9.87-13.06-16.44-6.89-7.86-21.5-19.29-30.84-25.51-42.27-28.16-99.57-54.14-135.59-84.08-31.66-26.32-34.73-39.83-63.18-68.5-32.16-32.42-81.6-61.91-129.62-70.37-3.83-1.83-6.39-2.06-9.68-3.53-67.16-10.64-134.01-8.18-196.31,22.27-73.62,35.98-127.62,99.63-164.16,172.43-9.39,18.7-15.49,41.92-26.62,60.71-15.97,26.96-37.14,52.83-55.58,77.89-18.71,25.43-34.34,43-36.52,45.66-22.75,27.69-55.18,70.67-94.96,135.52-25.28,4.84-121.61,23.25-190.74,35.76-27.05,4.89-40.74,7.08-46.98,8.1-25.81,4.19-51.95,8.01-79.34,11.59-18.15,2.37-26.3,8.23-28.86,15.36-6.83,19.02,33.03,49.22,48.4,60.87,8.84,6.7,29,20.96,72.24,39.19,21.26,8.96,51.11,20.15,88.33,29.7-74.39,146.39-90.01,178.01-91.25,181.18-.2.52-1.45,3.93-1.34,3.97.07.03,1.54-3.58,1.36-1.44-.28,3.22.86.78,2.04.4,8.54-2.69,16.69-10.44,24.66-15.34.3.66.5,1.58.79,2.2-39.07,66.84-83.48,131.54-103.61,207.64-2.86,10.81-7.49,28.18-7.96,40.17-.07,1.85-1.33,5.44,2.49,3.75,5.74-2.54,12.8-8.74,18.28-12.81.25,1.17.34,2.35.54,3.65-3.49,11.2-18.41,63.24,9.39,116.74,18.4,35.41,46.35,53.82,59.18,61.17Z"/>
      <path class="cls-2" d="M63.33,609.04c14.59,9.77,36.55,23.3,64.67,36.27,87.42,40.33,180.21,50.26,357.14,30.5,132.12-14.76,261.35-47.42,390.83-76.78-1.67-2.71-6.78-3.33-9.12-3.91-38.14-9.37-71.57-5.87-110.38-.5-69.28,9.59-139.33,25.02-209.24,34.16-35.18,4.6-71.2,7.61-106.65,8.31-.12-2.35,2.69-2.19,4.34-2.66,35.96-10.37,74.22-17.54,110.72-25.25,69.23-14.62,141.1-30.94,209.83-40.93,58.13-8.45,107.83-7.66,159.65,20.37,8.26,4.47,13.7,13.75,24.7,11.66,4.99-1.56,10.14-3.37,15.13-5.03-34.69-32.26-69.23-65.18-102.81-98.37-7.49-.34,5.32-4.13-15.46-2.22-25.42,2.34-492.78,82.7-658.37,102.95-25.29,3.09-69.2,7.99-124.96,11.42ZM218.61,611.54c205.76-32.92,405.48-64.47,613.81-97.1-50.17,12.69,59.64-13.36-18.67,6.14-78.3,19.5-215.57,53.89-318.32,73.82-76.54,14.85-172.53,34.83-252.08,23.8-10.36-1.76-15.66-4.63-24.75-6.65Z"/>
      <path class="cls-1" d="M1103.77,929.15c-.51-8.68-1.99-18.97-3.09-27.89-.27-2.19-.93-4.44-3.08-2.37-34.53,147.27-133.82,263.02-241.68,364.08,12.8,1.2,21.07,1.01,33.08-6.92,31.14-20.58,65.35-59.65,88.44-86.42,45.52-52.75,79.81-104.71,107.93-166.52,1.75-1.16,2.65.17,2.87,2.59.53,5.88.45,11.99,0,17.9,2.61.62,2.84-1,4.5-2.75,11.25-11.9,24.61-37.31,31.26-50.32,55.71-108.99,62.1-229.58-2.86-335.05,22.96,7.96,52.23,21.05,73.48,27.26,21.25,6.21,31.46,3.12,51.1,7.41,7.72.71,48.37-2.72,49.38-12.35,1.32-12.65-22.51-24.59-30.73-36.93-4.08-6.13-19.5-24.71-21.72-36.94-1.98-10.91-3.98-23.39-1.32-34.72,23.7-10.21,48.19-20.34,73.45-30.31,21.56-8.51,42.78-16.56,63.62-24.16-1.72-5.5-3.45-10.99-5.17-16.49-26.2,7.14-54.8,16.29-85.07,28.13-26.98,10.55-51.49,21.75-73.48,32.88-5.28,11.86-4.94,33.55-2.55,43.59,5.68,23.79,55.76,58.84,52.28,66.18-3.64,7.7-54.02-2.88-57.97-3.99-32.82-9.21-52.77-17.73-81.45-32.5-9.26-4.76-24.67-17.57-36.33-20.07-6.24-1.34-17.6,1.43-21.81,5-4.22,3.57.56,14.27,1.62,17.84,11.6,39.15,38.09,67.94,58.81,101.96,1.14,1.87,1.78,3.22,1.49,5.49-48.4-14.99-88.4-44.45-117.74-85.8,5.44,16.68,8.38,29.59,14.46,47.24,6.08,17.65,18.31,38.71,25.27,57.16-12.67-1.77-35.25-21.15-45.88-29.57-13.79-13.5-27.57-26.98-41.36-40.48,20.79,60.57,73.64,99.41,134.07,115.35-1.6-18.39-6.85-35.5-12.46-52.97,18.16,6.97,36.09,15.41,54.4,21.46.32,25.25,5,23.01,4.45,53.79-.55,30.78-7.98,79.23-20.76,113.22-4.52,12-11.02,30.12-19.33,40.55-.49-11.17.58-21.84-.1-33.54Z"/>
      <path class="cls-1" d="M754.74,673.12c-.02,7.2,12.55,25.42,14.38,30.44,29.97,81.86,5.79,179.81-43.52,248.41-1.16,1.61-6.82,10.42-9.92,9.23.02-19.37-.8-39.16-3.26-58.3-.27-2.11-.38-5.37-3.34-1.7-.65.8-2.59,9.8-3.98,12.72-43,90.52-100.04,172.48-181.7,234.83-14.23,10.86-46.35,36.3-66.97,39.91-1.25.22-2.85.9-2.74-.52,48.12-52.61,91.45-109.2,119.31-175.6,3.42-8.16,8.56-20.17,10.94-29.35.47-1.8,2.23-5.97-.84-6.28-4.39,10.33-10.33,20.08-16.5,29.49-48.95,74.72-103.27,147.43-168.98,208.13-20.23,18.68-41.06,33.72-62.52,50.86,11.27-4.32,18.35-1.02,30.88-3.77,13.86-3.04,29.92-16.49,41.66-26.07,6.88-5.61,17.39-18.42,23.77-21.81,9.68-5.15,19.92-4.35,28.02-7.16,105.65-36.71,184.57-131.87,235.93-227.41,2.39-1.6,1.5,1.59,1.56,3.13.39,9.93,1.58,19.77-.03,29.59,2.62,2.91,2.9-.88,4.3-2.11,78.93-69.34,126.31-210.06,99.94-312.99-1.51-5.91-6.74-26.24-14.45-29.35-10.74,1.61-21.56,3.35-31.95,5.69Z"/>
      <path class="cls-1" d="M1330.34,449.87c-36.46-30.2,33.74,25.7-19.86-18.58-53.6-44.27-178.25-94.26-266.3-93.42-49.2.47-91.62,8.86-122.31,51.62,2.97-35.6,25.16-61.28,46.31-87.7-51.28,20.4-88.68,84.5-36.81,126.2,16.72-36.9,26.83-63.47,72.69-69.83,69.29-9.62,167.14,14.48,231.73,41.05,35.23,14.49,58.69,30.27,94.55,50.66Z"/>
      <path class="cls-1" d="M544.09,757.41c-.98.95-1.47,6.95-2.31,8.94-31.09,73.12-80.9,134.63-147.12,178.74-19.3,10.12-38.54,20.02-57.9,30.27,27.73-.85,53.46-2.4,79.56-13.55,68.21-29.14,115.66-97.45,127.55-169.84,1.8-10.94,2-22.19,3.2-32.48.34-2.9-1.02-3.99-2.98-2.08Z"/>
      <path class="cls-1" d="M1128.72,242.5c23.49,11.06,46.76,21.82,70.2,32.78-32.97-6.29-65.3-13.43-99.06-15.67-2.12-.14-8.65-1.35-10.15,1.52,36.21,9.23,69.36,16.85,103.83,33.37,65.28,31.27,120.76,93.62,152.73,158.42.55,1.11,1.6,7.67,3.73,1.88.93-2.52-7.94-26.19-9.33-29.87-33.69-89.22-111.57-177.73-211.97-182.43Z"/>
      <path class="cls-1" d="M477.23,967.38c31.03-.18,60.13-10.18,84.61-29.63,67.72-53.8,94.05-136.71,93.24-221.88-12.35,37.11-.47,12.47-17.35,61.42-16.89,48.95-59.57,123.96-111.5,157.86-14.61,9.53-34.35,23.93-49,32.24Z"/>
      <path class="cls-1" d="M881.28,1021.44c1.85-14.41,7.81-30.08,10.23-45.66,2.15-13.81,2.38-28.46,3.44-42.62-7.77,20.73-12.65,38.61-21.06,60.02-8.41,21.41-19.9,45.83-28.69,67.71,5.28,1.87,17.87-7.85,21.14-9.91,33.93-21.3,58.91-49.5,80.84-81.95-1.46,12.65-2.21,25.26-4.47,37.75-1.98,10.92-5.75,21.26-6.53,32.46,26.54-45.1,33.49-96.44,30.6-148.44-9.61,20.06-4.92,16.8-17.81,42.22-12.89,25.42-40.2,68.72-67.69,88.42Z"/>
      <path class="cls-2" d="M907.26,446.3c9.96,9.43,20.98,15.26,31.3,24.38,30.2,26.7,54.49,60.1,72.02,96.47,7.73,20.19,15.28,40.15,23.11,60.4,12.02-56.39-12.1-109.21-50.22-151.01-6.04-6.62-21.73-23.75-31.01-26.82-15.84-5.23-29.84.61-45.21-3.42Z"/>
      <path class="cls-1" d="M290.15,936.21c21.98-.67,42.73-7.28,61.9-18.01,65.93-36.88,104.84-104.31,120.65-177.1-18.75,28.24-11.69,23.41-35.61,58.37-23.92,34.97-68.6,83.83-108.85,111.15-11.24,7.63-26.96,18.65-38.08,25.59Z"/>
      <path class="cls-1" d="M821.5,142.68c23.96,16.31,41.99,26.3,67.88,44.29,22.13,15.37,73.14,61.39,98.68,65.72,15.08,2.55,21.37-2.75,26.38-12.56,10.9-21.32-4.83-34.91-20.44-47.41.84,7.9,5.48,13.81,8.04,21.58.86,2.61,3.65,10.99-.32,12.62-59.53-29.53-115.38-66.31-180.22-84.23Z"/>
      <path class="cls-2" d="M957.83,270.75c1.23-3.84-.71-7.78-1.52-9.34-8.66-16.57-68.03-48.22-77.38-53.16-8.2-5.19-16.39-10.38-24.59-15.57-1.56,46.07,35.26,93.38,84.97,86.78,2.45-.32,18.02-7.15,18.52-8.71Z"/>
      <path class="cls-1" d="M982.27,1020.51c18.37-17.48,33.43-38.24,43.73-61.29,20.98-46.95,25.07-97.51,15.48-147.59-2.66,17.59-4.01,37.53-6.89,54.53-2.88,17-6.55,32.41-11.14,48.23-10.65,36.73-27.8,70.54-41.18,106.12Z"/>
      <path class="cls-2" d="M1172.92,411.76c-50.68-15.83-99.51,5.69-143.79,24.2,3.5,3.18,6.39,5.97,9.38,8.98,18.21,18.33,36.31,36.66,54.49,54.94,38.19-15.51,76.92-27.98,117.11-37.91,15.87-3.92,33.62-7.53,49.52-10.76-9.75-5.69-30.34-15.43-38.94-19.63-11.94-5.83-41.92-17.98-47.79-19.81Z"/>
      <path class="cls-1" d="M633.05,901.99c-.08,2.79,3.47,1.73,4.98,1.27,53.19-15.96,77.89-67.04,79.31-120-8.89,17.41-4.48,13.05-16.46,35.54-11.97,22.49-39.06,59.79-62.15,79.82-1.41,1.22-3.91,3.73-5.67,3.36Z"/>
      <path class="cls-2" d="M1343.94,374.45c11.98,7.51,11.37,39.04,20.91,44.03,14.12,7.39,29.2-15.56,44.54-9.92,1.2-4.32-8.68-11.76-10.54-13.22-17.1-13.41-33.28-21.6-54.9-20.88Z"/>
      <path class="cls-1" d="M1120.92,209.88c-15.39-10.72-34.87-21.7-49.16-32.09-14.29-10.38-23.37-20.23-36.56-30.23,7.86,12.23,17.78,30.91,25,41.73,7.22,10.82,15.47,21.57,25.43,24.44,13.41,3.86,23.05-2.81,35.3-3.86Z"/>
      <path class="cls-2" d="M1442.21,356.83c20.85,17.51,32.65,42.48,38.4,69.32,1.6,7.47,1.28,14.99,2.46,22.68.22,1.43.48,3.93,2.75,4.57.07-19.88,3.31-19.69,2.68-44.04s-5.99-64.6-46.29-52.53Z"/>
      <path class="cls-2" d="M1460.76,437c-3.47-31.73-19-77.03-57.61-75.59,29.23,27.5,48.61,63.1,54.6,102.85.82.3,3-1.89,3-2.18.01-8.65.93-16.64.01-25.08Z"/>
      <path class="cls-1" d="M654.27,461.59c3.53,3.27,7.14,10.12,12.31,11.69,9.88-2.54,19.71-5.21,29.57-7.8-28.53-18.61-58.76-34.05-89.64-48.32-.41,2.83,1.44,3.63,3.21,5.3,14.54,13.65,29.77,25.45,44.55,39.13Z"/>
      <path class="cls-1" d="M1013.4,270.59c43.48-5.56,54.38-43.04,32.72-77.9-3.05.81-1.69,6.58-1.64,8.49.13,4.54,1.91,7.94,1.44,12.31-2.51,23.25-15.01,42.04-32.53,57.1Z"/>
      <path class="cls-1" d="M835.76,333.09c-7.96-6.55-9.26-5.13-18.84-13.63-9.58-8.5-26.52-24.24-35.66-37.71-2.65-3.91-8.07-12.7-11.02-17.3,3.81,35.53,28.1,66.09,65.53,68.64Z"/>
    </g>
    <path class="cls-1" d="M1097.62,562.68c5.2-1.18,10.4-2.51,16.33-3.24,2.85,1.66,53.78,37.4,55.63,29.85,3.01-12.31-25.63-23.57-19.44-42.78,2.09-6.49,8.54-6.36,13.95-7.71.98,6.41,10.38,23.21,11.4,26.95,2.68,9.84,34.93,41.74,28.29,47.87-8.09,7.47-40.3-6.23-53.45-13.1-15.68-8.2-38.99-23.45-52.72-37.85Z"/>
    <path class="cls-1" d="M255.69,1278.4c-15.66-5.97-28.95-15.91-40.08-28.42-38.28-43.02-49.47-101.3-42.68-157.67,6.46,25.02,2.57,19.78,11.08,50.93,8.5,31.16,28.48,77.5,50.65,107.23,6.19,8.3,14.76,20.16,21.04,27.94Z"/>
    <path class="cls-1" d="M307.86,1188.52c-.8,2.67-3.84.55-5.12-.35-45.5-31.84-52.93-88.09-37.66-138.82,2.98,19.32.16,13.8,4.48,38.91,4.32,25.11,18.33,69.03,33.97,95.29.95,1.6,2.54,4.77,4.33,4.97Z"/>
  </g>
</svg>